<?xml version="1.0" standalone="no"?><!DOCTYPE svg PUBLIC "-//W3C//DTD SVG 1.1//EN" "http://www.w3.org/Graphics/SVG/1.1/DTD/svg11.dtd"><svg t="1611309665601" class="icon" viewBox="0 0 1024 1024" version="1.1" xmlns="http://www.w3.org/2000/svg" xmlns:xlink="http://www.w3.org/1999/xlink" width="200" height="200"><defs><style type="text/css"></style></defs><path d="M862.208 120.832H728.064V80.896c0-22.528-18.432-39.936-39.936-39.936-22.528 0-39.936 18.432-39.936 39.936v39.936H376.832V80.896C376.832 58.368 358.4 40.96 336.896 40.96 314.368 40.96 296.96 59.392 296.96 80.896v39.936H161.792C72.704 120.832 0 193.536 0 282.624v538.624C0 911.36 72.704 984.064 161.792 984.064h700.416c89.088 0 161.792-72.704 161.792-161.792V282.624c0-89.088-72.704-161.792-161.792-161.792z m-700.416 80.896H296.96v39.936c0 22.528 18.432 39.936 39.936 39.936 22.528 0 39.936-18.432 39.936-39.936v-39.936h269.312v39.936c0 22.528 18.432 39.936 39.936 39.936 22.528 0 39.936-18.432 39.936-39.936v-39.936h135.168c45.056 0 80.896 35.84 80.896 80.896v80.896H80.896v-80.896c0-44.032 35.84-80.896 80.896-80.896z m700.416 701.44H161.792c-45.056 0-80.896-35.84-80.896-80.896V444.416h862.208v376.832c0 45.056-35.84 81.92-80.896 81.92z"  p-id="898"></path><path d="M310.272 551.936h-80.896c-22.528 0-39.936 18.432-39.936 39.936 0 22.528 18.432 39.936 39.936 39.936h80.896c22.528 0 39.936-18.432 39.936-39.936 0-21.504-18.432-39.936-39.936-39.936zM310.272 713.728h-80.896c-22.528 0-39.936 18.432-39.936 39.936s18.432 39.936 39.936 39.936h80.896c22.528 0 39.936-18.432 39.936-39.936s-18.432-39.936-39.936-39.936zM551.936 551.936H471.04c-22.528 0-39.936 18.432-39.936 39.936 0 22.528 18.432 39.936 39.936 39.936h80.896c22.528 0 39.936-18.432 39.936-39.936 1.024-21.504-17.408-39.936-39.936-39.936zM551.936 713.728H471.04c-22.528 0-39.936 18.432-39.936 39.936s18.432 39.936 39.936 39.936h80.896c22.528 0 39.936-18.432 39.936-39.936s-17.408-39.936-39.936-39.936zM794.624 551.936h-80.896c-22.528 0-39.936 18.432-39.936 39.936 0 22.528 18.432 39.936 39.936 39.936h80.896c22.528 0 39.936-18.432 39.936-39.936 1.024-21.504-17.408-39.936-39.936-39.936zM794.624 713.728h-80.896c-22.528 0-39.936 18.432-39.936 39.936s18.432 39.936 39.936 39.936h80.896c22.528 0 39.936-18.432 39.936-39.936s-17.408-39.936-39.936-39.936z"></path></svg>