<?xml version="1.0" standalone="no"?><!DOCTYPE svg PUBLIC "-//W3C//DTD SVG 1.1//EN"
        "http://www.w3.org/Graphics/SVG/1.1/DTD/svg11.dtd">
<svg t="1611303407919" class="icon" viewBox="0 0 1024 1024" version="1.1" xmlns="http://www.w3.org/2000/svg" p-id="901"
     width="200" height="200">
    <defs>
        <style type="text/css"></style>
    </defs>
    <path d="M463.69458582 23.3696627L112.45911114 210.69092656A102.67331995 102.67331995 0 0 0 58.12362513 301.27168309v421.45663382c0 37.93109705 20.91073299 72.74989894 54.33548601 90.58075653l351.23547468 187.32126386a102.67331995 102.67331995 0 0 0 96.61082836 0l351.23547468-187.32126386A102.67331995 102.67331995 0 0 0 965.87637487 722.72831691v-421.45663382c0-37.93109705-20.91073299-72.74989894-54.33548601-90.58075653L560.30541418 23.3696627a102.67331995 102.67331995 0 0 0-96.61082836 0z m50.83415399 85.8150546l351.23547467 187.32126386A5.41409675 5.41409675 0 0 1 868.61715169 301.27168309v421.45663382a5.41409675 5.41409675 0 0 1-2.85293721 4.76570193l-351.23547467 187.32126386a5.41409675 5.41409675 0 0 1-5.05747962 0L158.23578552 727.49401884A5.41409675 5.41409675 0 0 1 155.38284831 722.72831691v-421.45663382c0-2.01002395 1.1022712-3.82552944 2.85293721-4.76570193l351.23547467-187.32126386a5.41409675 5.41409675 0 0 1 5.05747962 0z"></path>
    <path d="M512 333.69142416a178.30857584 178.30857584 0 1 0 0 356.61715168 178.30857584 178.30857584 0 0 0 0-356.61715168z m0 97.25922318a81.04935266 81.04935266 0 1 1 0 162.09870532 81.04935266 81.04935266 0 0 1 0-162.09870532z"></path>
</svg>